<svg xmlns="http://www.w3.org/2000/svg" xmlns:xlink="http://www.w3.org/1999/xlink" width="300" zoomAndPan="magnify" viewBox="0 0 224.87999 225" height="300" preserveAspectRatio="xMidYMid meet" version="1.0"><defs><clipPath id="ec549c68f3"><path d="M 44.976562 24 L 201 24 L 201 179.964844 L 44.976562 179.964844 Z M 44.976562 24 " clip-rule="nonzero"/></clipPath><clipPath id="f9fb9407ba"><path d="M 109 0.0585938 L 224.761719 0.0585938 L 224.761719 116 L 109 116 Z M 109 0.0585938 " clip-rule="nonzero"/></clipPath></defs><g clip-path="url(#ec549c68f3)"><path fill="#000000" d="M 191.742188 84.863281 C 187.179688 84.863281 183.46875 88.574219 183.46875 93.136719 L 183.46875 163.425781 L 61.507812 163.425781 L 61.507812 41.460938 L 131.792969 41.460938 C 136.359375 41.460938 140.070312 37.75 140.070312 33.1875 C 140.070312 28.625 136.359375 24.914062 131.792969 24.914062 L 53.25 24.914062 C 48.6875 24.914062 44.976562 28.625 44.976562 33.1875 L 44.976562 171.679688 C 44.976562 176.242188 48.6875 179.953125 53.25 179.953125 L 191.742188 179.953125 C 196.308594 179.953125 200.019531 176.242188 200.019531 171.679688 L 200.019531 93.136719 C 200.019531 88.574219 196.308594 84.863281 191.742188 84.863281 Z M 191.742188 84.863281 " fill-opacity="1" fill-rule="nonzero"/></g><g clip-path="url(#f9fb9407ba)"><path fill="#000000" d="M 216.585938 0.0703125 L 166.710938 0.0703125 C 162.148438 0.0703125 158.4375 3.78125 158.4375 8.34375 C 158.4375 12.90625 162.128906 16.617188 166.710938 16.617188 L 196.628906 16.617188 L 111.4375 101.789062 C 108.199219 105.027344 108.199219 110.253906 111.4375 113.472656 C 113.046875 115.082031 115.167969 115.898438 117.289062 115.898438 C 119.410156 115.898438 121.53125 115.082031 123.140625 113.472656 L 208.332031 28.28125 L 208.332031 58.21875 C 208.332031 62.78125 212.023438 66.496094 216.605469 66.496094 C 221.167969 66.496094 224.878906 62.78125 224.878906 58.21875 L 224.878906 8.34375 C 224.859375 3.78125 221.148438 0.0703125 216.585938 0.0703125 Z M 216.585938 0.0703125 " fill-opacity="1" fill-rule="nonzero"/></g></svg>